<svg id="Layer_1" data-name="Layer 1" xmlns="http://www.w3.org/2000/svg" viewBox="0 0 1152.5 761.54"><defs><style>.cls-1{fill:#fff;}</style></defs><circle class="cls-1" cx="171.76" cy="169.5" r="169"/><path d="M262.26,119a168.49,168.49,0,1,1-119.15,49.35A167.43,167.43,0,0,1,262.26,119m0-1a169.5,169.5,0,1,0,169.5,169.5A169.5,169.5,0,0,0,262.26,118Z" transform="translate(-90.5 -118)"/><path d="M250.79,236.34,246,237.48v-1.8l6.16-2.88h1.64v26.75h-3Z" transform="translate(-90.5 -118)"/><path d="M261.64,239.15H265v3.51h-3.35Zm0,14.32H265V257h-3.35Z" transform="translate(-90.5 -118)"/><path d="M273.77,236.34l-4.84,1.14v-1.8l6.16-2.88h1.64v26.75h-3Z" transform="translate(-90.5 -118)"/><path d="M212.77,316.42a64.16,64.16,0,0,1-12.4,1.13h-2.62V296.22h3V315a55.3,55.3,0,0,0,11.7-1.05Zm9.32,10.14v-18h-4.48v16.27h-2.89V293.29h2.89v12.76h4.48V292.48H225v34.08Z" transform="translate(-90.5 -118)"/><path d="M248.92,311.86a16.41,16.41,0,0,1-8.42-8.35c-1,3.67-4.95,7.61-8.66,9.48l-1.79-2.34c4.48-2,8.89-7,8.89-12.44v-3.78h3v3.7c0,5.69,4.6,9.91,8.66,11.35Zm-13.06,13.65V315h3v8H258.6v2.46Zm19-8.27V292.48h3v24.76Z" transform="translate(-90.5 -118)"/><path d="M274,313c-3.51.12-7.64.31-10.41.31l-.39-2.65c1.95,0,5.07,0,7.6-.08v-8.07h2.93v8a98,98,0,0,0,11-.9l.32,2.38C282,312.41,277.2,312.79,274,313Zm7.41-6-2.89-.46a37.52,37.52,0,0,0,.9-9.05H265.22v-2.5h17.2A51.17,51.17,0,0,1,281.37,306.94Zm-13.1,18.8V315.8h3v7.45h20.2v2.49Zm21.8-19.81v12.13h-3V292.48h3v10.95h5.11v2.5Z" transform="translate(-90.5 -118)"/><path d="M319.67,317.28a114.32,114.32,0,0,1-16.89,1.13h-3.47V305.27h12.91v-7.18H299.15v-2.46h16.07v12.1h-13v8.15h.82a108.21,108.21,0,0,0,16.31-1.06Zm5.81-24.8v34.08h-3V292.48Z" transform="translate(-90.5 -118)"/><circle class="cls-1" cx="584" cy="170.5" r="169"/><path d="M674.5,120a168.49,168.49,0,1,1-119.15,49.35A167.43,167.43,0,0,1,674.5,120m0-1A169.5,169.5,0,1,0,844,288.5,169.5,169.5,0,0,0,674.5,119Z" transform="translate(-90.5 -118)"/><path d="M561.8,264v-21.8h16.11V264ZM575,244.64H564.81v16.89H575Zm9.79,28.12V238.68h3v34.08Z" transform="translate(-90.5 -118)"/><path d="M607.55,261.49v-6.36H593.67v-2.49H616.4a41.69,41.69,0,0,0,1.13-9.64H597.41v-2.45h23.17a52.72,52.72,0,0,1-1.21,12.09h5.07v2.49H610.51v6.36h10V273h-3V264H596.94v-2.46Z" transform="translate(-90.5 -118)"/><path d="M637.77,247.57v-2.42H657.2v2.42Zm9.87,13.49c-4.56,0-8.11-2.38-8.11-5.93s3.51-5.88,8.11-5.88,8.11,2.26,8.11,5.88S652.28,261.06,647.64,261.06Zm0-9.44c-2.89,0-5.19,1.37-5.19,3.51s2.3,3.51,5.19,3.51,5.23-1.36,5.23-3.51S650.53,251.62,647.64,251.62Zm-5-9.12v-2.65h9.83v2.65Zm.74,29.13v-9h3v6.51h19.93v2.46Zm13.5-23h5.69v-10h3v25.58h-3v-6.4h-5.69v-2.41h5.69v-4.37h-5.69Z" transform="translate(-90.5 -118)"/><path d="M690.62,264.65c-3.2-2.07-7.53-6.36-8.7-10.37-1.13,4.25-4.87,8.62-8.81,11.15l-1.84-2.18c5-2.93,9.09-8.74,9.09-15.18v-3.51h-8v-2.45h19v2.45h-8V248c0,6.35,4.33,11.85,9,14.39Zm8.74-26v34.08h-3V238.68Z" transform="translate(-90.5 -118)"/><path d="M717.25,265.66l-2-2.18A22.7,22.7,0,0,0,727,245.19H716.43v-2.5h13.65C730,252.83,725.33,260.79,717.25,265.66Zm24,7.1V254.55h-4.45v16.5h-2.92V239.49h2.92v12.6h4.45V238.68h2.93v34.08Z" transform="translate(-90.5 -118)"/><path d="M768.23,249.44c0,5.07-4,8.46-9.17,8.46s-9.2-3.35-9.2-8.42,4-8.54,9.16-8.54S768.23,244.37,768.23,249.44Zm-15.52,0c0,3.43,2.76,5.85,6.35,5.85,3.75,0,6.36-2.42,6.36-5.81s-2.61-6-6.4-6C755.44,243.51,752.71,246,752.71,249.44Zm2,22.19V261.1h3v8.07h20.12v2.46ZM774,263.56V238.68h3v24.88Z" transform="translate(-90.5 -118)"/><path d="M790.89,239.92h2.69l-9.17,32.45h-2.69Z" transform="translate(-90.5 -118)"/><path d="M566.52,330.53V328h30.77v2.49Zm24.85-5.07-3-.39a96.73,96.73,0,0,0,1.44-17.32H569.72V305.3h23.17A108.86,108.86,0,0,1,591.37,325.46Z" transform="translate(-90.5 -118)"/><path d="M614.1,325.23v-4.41H600.26V318.4H631v2.42h-14v4.41Zm-10-9.6v-7.72h20V305H604v-2.34h23.17v7.45H607v3.16h20.75v2.34Zm0,19.46V323.35h3v3.75h17.16v-3.78h3v11.77Zm20.12-5.61H607v3.16h17.16Z" transform="translate(-90.5 -118)"/><path d="M660.16,326.28a64.05,64.05,0,0,1-12,.94h-2.93V314.46h9.52v-6.74h-9.59v-2.46H657.7v11.66h-9.55v7.76a65.25,65.25,0,0,0,11.62-.9Zm3.51,7.53V317.19h-4.41v-2.45h4.41V302.29h2.89v31.52Zm6.55,1.75V301.48h2.89v34.08Z" transform="translate(-90.5 -118)"/><path d="M678,321.87v-2.49h30.77v2.49ZM705.79,316c-5.66-1-10.88-4.95-12.44-8.23-1.33,3.28-6.44,7.18-12.29,8.23l-1.36-2.49c5.65-.63,12.17-4.88,12.17-9.64v-1.36H695v1.36c0,4.76,7,9.13,12.21,9.64ZM682,334.51V324.8h3V332h20.32v2.5Z" transform="translate(-90.5 -118)"/><path d="M737.5,327.53c-2.42-1.72-6-5.7-7-9.28-.7,3.78-3.78,7.84-7.09,10.18l-2-2.07a17.55,17.55,0,0,0,7.6-14.59V308h-6.78v-2.46h16.26V308H732v3.74a15.35,15.35,0,0,0,7.41,13.65Zm3.54,6.32v-17.4h-5.46V314H741v-11.7H744v31.56Zm6.75,1.71V301.48h2.93v34.08Z" transform="translate(-90.5 -118)"/><path d="M755.71,320.2v-2.46h12.67v-7.22h3v7.22h15.13v2.46ZM771,335.25c-8,0-12.29-2.3-12.29-6.12S763.08,323,771,323s12.2,2.34,12.2,6.16S779,335.25,771,335.25Zm11.81-28.86a45.24,45.24,0,0,1-1,9.09l-2.93-.39a30.91,30.91,0,0,0,.82-6.52l0-2.77H759.1v-2.45h23.75Zm-11.81,19c-5.78,0-9.33,1.41-9.33,3.75s3.55,3.74,9.33,3.74,9.28-1.36,9.28-3.74S776.73,325.38,771,325.38Z" transform="translate(-90.5 -118)"/><circle class="cls-1" cx="1073.5" cy="289.5" r="169" transform="translate(19.21 725.87) rotate(-45)"/><path d="M1073.5,121a168.49,168.49,0,1,1-119.15,49.35A167.43,167.43,0,0,1,1073.5,121m0-1A169.5,169.5,0,1,0,1243,289.5,169.5,169.5,0,0,0,1073.5,120Z" transform="translate(-90.5 -118)"/><path d="M1005.59,257V242.21h16.27V257Zm26,16.85c-4.84-.74-10.26-4.29-11.51-7.14-1.29,2.89-6.32,6.24-11.66,7l-1.33-2.26c5.85-.62,10.77-4.21,11.35-7.64H1009V261.4h22.19v2.42h-9.4c.62,3.27,5.89,7.25,11.31,7.76Zm-12.72-29.21h-10.33v9.9h10.33Zm11.7,6.43v8.58h-3v-20h3v8.93h5.19v2.49Z" transform="translate(-90.5 -118)"/><path d="M1041.82,273.29V262.76H1052v-3.43h-13.88v-2.45h30.77v2.45H1055v3.43h10.18v10.53Zm24.11-18c-5-.66-10.53-2.37-12.44-5.77-1.72,3.44-7.3,5.15-12.56,5.77l-1.1-2.37c5-.28,11-2.07,12-5.54h-10.61V245h24.57v2.42h-10.65c1.09,3.43,7.33,5.07,12.09,5.42Zm-3.75,9.87h-17.35v5.66h17.35ZM1048,242.33v-2.58H1059v2.58Z" transform="translate(-90.5 -118)"/><path d="M1100.52,249.31c0,4.87-3.94,7.92-8.74,7.92s-8.77-3.05-8.77-7.88,4-8,8.77-8S1100.52,244.47,1100.52,249.31Zm-14.55,0c0,3.27,2.46,5.46,5.81,5.46s5.77-2.19,5.77-5.42-2.26-5.42-5.77-5.42C1088.43,243.93,1086,246.11,1086,249.31Zm2,24V259.8h3v4.33H1107V259.8h3v13.49Zm19-6.74H1091v4.33H1107Zm0-8.62V239.68h3v18.25Z" transform="translate(-90.5 -118)"/><path d="M1134.72,265.57c-3.08-2.1-7.1-6.32-8.42-10.41-1.25,4.25-4.76,8.42-8.7,11.23l-1.95-2.22c5-3.12,9.09-9.32,9.09-15.37v-6.16h3v6.05c0,6.24,4.13,11.81,8.85,14.62Zm6.2,8.19V239.68h3v34.08Z" transform="translate(-90.5 -118)"/><path d="M989.51,329.78l-1.84-2.34c8.51-3.94,13.38-11.12,14-18.8H988.84v-2.5h16C1004.68,317.22,998.28,325.21,989.51,329.78Zm24.22-13.11h5.57v2.54h-5.57v17.35h-3V302.48h3Z" transform="translate(-90.5 -118)"/><path d="M1031.16,305.05c5.65,0,8.81,4.84,8.81,12.05s-3.16,12-8.81,12-8.78-4.83-8.78-12.09S1025.58,305.05,1031.16,305.05Zm0,2.57c-3.59,0-6,3.86-6,9.48s2.38,9.48,6,9.48,6-3.9,6-9.48S1034.79,307.62,1031.16,307.62Zm15.17,28.94V302.48h3v34.08Z" transform="translate(-90.5 -118)"/><path d="M1055,331.88v-2.49h30.77v2.49Zm3.86-10v-16h22.89v2.46h-19.93v11.11h20.24v2.46Z" transform="translate(-90.5 -118)"/><path d="M1114.5,328.53c-2.42-1.72-6-5.7-7-9.28-.7,3.78-3.79,7.84-7.1,10.18l-2-2.07a17.53,17.53,0,0,0,7.61-14.59V309h-6.79v-2.46h16.26V309H1109v3.74a15.35,15.35,0,0,0,7.41,13.65Zm3.55,6.32v-17.4h-5.46V315h5.46v-11.7H1121v31.56Zm6.75,1.71V302.48h2.92v34.08Z" transform="translate(-90.5 -118)"/><path d="M1132.71,321.2v-2.46h12.68v-7.22h3v7.22h15.13v2.46ZM1148,336.25c-8,0-12.29-2.3-12.29-6.12S1140.08,324,1148,324s12.21,2.34,12.21,6.16S1156,336.25,1148,336.25Zm11.82-28.86a44.48,44.48,0,0,1-1,9.09l-2.92-.39a31.58,31.58,0,0,0,.82-6.52l0-2.77H1136.1v-2.45h23.76Zm-11.82,19c-5.77,0-9.32,1.41-9.32,3.75s3.55,3.74,9.32,3.74,9.28-1.36,9.28-3.74S1153.73,326.38,1148,326.38Z" transform="translate(-90.5 -118)"/><circle class="cls-1" cx="169.5" cy="590.04" r="169"/><path d="M260,539.54A168.53,168.53,0,1,1,140.86,588.9,167.38,167.38,0,0,1,260,539.54m0-1A169.5,169.5,0,1,0,429.5,708,169.5,169.5,0,0,0,260,538.54Z" transform="translate(-90.5 -118)"/><path d="M179.69,669.45c0,4.62-3.74,7.51-8.29,7.51s-8.32-2.89-8.32-7.47,3.77-7.59,8.32-7.59S179.69,664.86,179.69,669.45Zm-13.8,0c0,3.11,2.33,5.18,5.51,5.18s5.48-2.07,5.48-5.14-2.15-5.15-5.48-5.15S165.89,666.42,165.89,669.45Zm1.92,22.76V679.4h2.81v4.11h15.25V679.4h2.81v12.81Zm18.06-6.41H170.62v4.11h15.25Zm0-8.17V660.31h2.81v17.32Z" transform="translate(-90.5 -118)"/><path d="M210.66,684.88c-2.93-2-6.74-6-8-9.88-1.19,4-4.52,8-8.26,10.66l-1.85-2.11c4.74-3,8.63-8.85,8.63-14.58v-5.85H204v5.74c0,5.92,3.93,11.21,8.4,13.87Zm5.88,7.77V660.31h2.85v32.34Z" transform="translate(-90.5 -118)"/><path d="M238,673.11h3.48V660.94h2.74V691.1h-2.74V675.44H238c-.3,5.85-2.66,9.81-7.1,9.81-4.7,0-7.11-4.55-7.11-11.06s2.41-11.07,7.11-11.07C235.37,663.12,237.78,667.23,238,673.11Zm-7.1-7.51c-2.59,0-4.26,3.37-4.26,8.59s1.67,8.58,4.26,8.58,4.33-3.33,4.33-8.58S233.52,665.6,230.9,665.6Zm16.87,27V660.31h2.77v32.34Z" transform="translate(-90.5 -118)"/><path d="M282.77,675.22c-2.37.37-6.18.63-9.73.85s-7.22.3-10.1.3l-.41-2.41c1.44,0,3,0,4.48,0l-.82-7.33,2.85-.33.52,7.62c1.41,0,2.78-.11,4.11-.18a6.34,6.34,0,0,0,.85,0l.55-7.48,2.78.34-.82,7a47.71,47.71,0,0,0,5.48-.52Zm-19.35-10.51v-2.29H281v2.29Zm4.36,27.72v-8h17.91v-3.18h-18v-2.3h20.84v7.62H270.6v3.56h19.09v2.33Zm17.88-15.1v-17h2.81v17Z" transform="translate(-90.5 -118)"/><path d="M292.57,688.54v-2.37h7.22v-6l2.81-.07v6.1h9v-6.1l2.81.07v6h7.33v2.37Zm14.55-9.36c-7,0-11.62-3.33-11.62-8.32s4.66-8.4,11.62-8.4,11.69,3.4,11.69,8.4S314.15,679.18,307.12,679.18Zm0-14.39c-5.37,0-8.92,2.44-8.92,6.07s3.55,6.06,8.92,6.06,9-2.44,9-6.06S312.56,664.79,307.12,664.79Z" transform="translate(-90.5 -118)"/><path d="M323,668.71v-2.33H341.9v2.33Zm9.47,13.06c-4.29,0-7.58-2.26-7.58-5.66s3.25-5.66,7.58-5.66,7.63,2.18,7.63,5.66S336.79,681.77,332.42,681.77Zm0-9.1c-2.59,0-4.92,1.29-4.92,3.44s2.33,3.4,4.92,3.4,5-1.29,5-3.4S335.05,672.67,332.42,672.67Zm-4.84-8.73v-2.48h9.32v2.48Zm.11,27.67v-8.28h2.81v5.92h18.72v2.36Zm20.27-18v10.55h-2.81V660.31H348v11h4.93v2.37Z" transform="translate(-90.5 -118)"/><path d="M132.35,742.68a62.94,62.94,0,0,0,10.84-.81l.26,2.29a80.29,80.29,0,0,1-12.73,1h-2.15v-20h12.55v2.37h-9.73v15.24Zm19.72,10.77V736.21h-4.33v15.58H145v-29.9h2.74v12h4.33V721.11h2.77v32.34Z" transform="translate(-90.5 -118)"/><path d="M177.41,731.17c0,4.26-3.07,7.15-7.36,7.66v5.11c3.66-.15,7.55-.41,9.66-.7l.26,2.29c-2.56.3-6.89.63-10.81.85-3.62.15-8.43.26-10.54.26l-.48-2.48c2.48,0,5.73,0,9.1-.11v-5.22c-4.29-.51-7.36-3.4-7.36-7.62,0-4.7,3.77-7.84,8.73-7.84S177.41,726.47,177.41,731.17Zm-14.8,0c0,3.29,2.52,5.4,6,5.4s6.07-2.11,6.07-5.36-2.41-5.51-6.07-5.51S162.61,727.88,162.61,731.21Zm19.24,22.24V721.11h2.78v32.34Z" transform="translate(-90.5 -118)"/><path d="M199.91,736.47v1.59c3.4-.19,6.92-.45,8.84-.74l.26,2.07c-2.37.26-6.51.7-10.36.89-3.62.22-7.84.37-10.14.37l-.44-2.33c2.33,0,5.73,0,9-.11v-1.74c-3.55-.23-6.11-1.52-6.11-4,0-2.85,3.22-4.14,7.37-4.14s7.47,1.29,7.47,4.1C205.83,734.87,203.31,736.17,199.91,736.47ZM189,727.33v-2.19h18.91v2.19Zm3.62,26V746.6h18.13v-2.33H192.47v-2.11h21.09v6.44H195.4v2.59h19.35v2.15Zm5.78-22.91c-2.67,0-4.74.67-4.74,2s2.15,2,4.74,2,4.81-.7,4.81-2S201,730.43,198.36,730.43ZM194,723.55v-2.29h8.92v2.29Zm19.61,9.51v7.36h-2.85V721.11h2.85v9.62h4.89v2.33Z" transform="translate(-90.5 -118)"/><path d="M235.13,733.36v4.1h13.21v2.34H219.15v-2.34h13.17v-4.1H222.7v-10.7h22V725H225.55v6h19.28v2.33Zm-1.4,20.09c-7.07,0-11.07-2.07-11.07-5.66s4-5.63,11.07-5.63,11.14,2,11.14,5.63S240.83,753.45,233.73,753.45Zm-8.18-5.66c0,2.14,3.11,3.33,8.18,3.33s8.25-1.19,8.25-3.33-3.11-3.33-8.25-3.33S225.55,745.72,225.55,747.79Z" transform="translate(-90.5 -118)"/><path d="M259.55,746.53l-1.85-2.11a20.4,20.4,0,0,0,10.66-16.91h-9.44v-2.37h12.25C271,735,267,741.76,259.55,746.53Zm16.76,5.29V740.61H270.8v-2.33h5.51v-5.92h-4.77V730h4.77v-8.1h2.74v29.93Zm6.11,1.63V721.11h2.77v32.34Z" transform="translate(-90.5 -118)"/><path d="M300.22,738.06v2c3.62-.18,7.4-.52,9.51-.78l.14,2.26c-2.55.3-6.47.67-10.39.89-3.67.22-8.44.37-10.59.37l-.4-2.48c2.36,0,5.58,0,8.91-.11V738c-3.55-.26-6.21-1.63-6.21-4.26,0-3,3.55-4.4,7.8-4.4s7.92,1.37,7.92,4.37C306.91,736.47,304,737.8,300.22,738.06Zm-10.88-9.7v-2.29h19.2v2.29ZM315,744.31v9.36H312.2v-7H293.33v-2.33Zm-16-12.77c-2.84,0-4.84.71-4.84,2.19s2,2.25,4.84,2.25,5-.74,5-2.25S301.84,731.54,299,731.54Zm-4.32-7.4v-2.33h8.88v2.33Zm17.53,18.51V721.11H315v21.54Z" transform="translate(-90.5 -118)"/><path d="M340.36,753.49V741.76H327.22v-2.37h29.2v2.37H343.17v11.73ZM353.9,736c-4.84-1-10.14-4-12.1-7.81-1.55,3.77-7.06,6.92-12,7.88l-1.36-2.4c6.21-.82,11.91-4.92,11.91-9.33v-2.07h3v2.07c0,4.41,6.22,8.55,11.92,9.25Z" transform="translate(-90.5 -118)"/><path d="M377.17,737.13a98.48,98.48,0,0,1-14.2.93h-3.59v-9h11.5V725H359.23v-2.3H373.7v8.62H362.19v4.37c5.07,0,11.28-.19,14.65-.85ZM363.23,753V740.65H366v4h15.35v-4h2.82V753Zm18.16-6.11H366v3.77h15.35Zm0-8.1V721.11h2.81V738.8Z" transform="translate(-90.5 -118)"/><circle class="cls-1" cx="581.74" cy="591.04" r="169"/><path d="M672.24,540.54A168.53,168.53,0,1,1,553.1,589.9a167.38,167.38,0,0,1,119.14-49.36m0-1A169.5,169.5,0,1,0,841.74,709a169.5,169.5,0,0,0-169.5-169.5Z" transform="translate(-90.5 -118)"/><circle class="cls-1" cx="980.74" cy="592.04" r="169"/><path d="M1071.24,541.54A168.53,168.53,0,1,1,952.1,590.9a167.38,167.38,0,0,1,119.14-49.36m0-1A169.5,169.5,0,1,0,1240.74,710a169.5,169.5,0,0,0-169.5-169.5Z" transform="translate(-90.5 -118)"/><path d="M1010.52,641v-1.95h15.53V641Zm7.72,10.26c-3.54,0-6.17-1.76-6.17-4.49s2.6-4.5,6.17-4.5,6.17,1.74,6.17,4.5S1021.77,651.29,1018.24,651.29Zm13.24,1.59v8.8h-2.36v-6.85h-15.19v-2Zm-17.09-15.69v-2h7.82v2Zm3.85,7c-2,0-3.85,1-3.85,2.6s1.83,2.6,3.85,2.6,3.81-1,3.81-2.6S1020.32,644.2,1018.24,644.2Zm13.24.3v6.89h-2.36V634.58h2.36v7.94h4.12v2Z" transform="translate(-90.5 -118)"/><path d="M1035,657.68v-2h6.14v-9.37h2.35v9.37h4.5v-9.37h2.35v9.37h9.12v2Zm21.45-16.86a58.53,58.53,0,0,1-1,11.78l-2.36-.37a49.08,49.08,0,0,0,1-10.21v-2.44h-16.43v-2h18.88Z" transform="translate(-90.5 -118)"/><path d="M1074.78,642.86c0,3.57-2.6,5.95-6.17,6.42v4.4c3-.18,5.8-.37,7.54-.62l.18,1.89c-2.14.31-5.86.59-9.14.81-3,.16-5.65.25-7.91.25l-.43-2.08c2,0,4.65,0,7.41-.12v-4.53c-3.6-.4-6.21-2.79-6.21-6.39,0-3.93,3.17-6.54,7.35-6.54S1074.78,638.92,1074.78,642.86Zm-12.43,0c0,2.73,2.14,4.47,5.05,4.47s5.06-1.74,5.06-4.44-2-4.55-5.06-4.55S1062.35,640.13,1062.35,642.89Zm17.86,5v13.76h-2.39v-27.1h2.39v11.35h4.34v2Z" transform="translate(-90.5 -118)"/><path d="M1100.33,661.71v-8.93h-11v-2h24.46v2h-11.1v8.93Zm-8.07-14.14V635.64h2.39v4h13.8v-4h2.35v11.93Zm16.19-6h-13.8v4.06h13.8Z" transform="translate(-90.5 -118)"/><path d="M1113.65,658.24v-2h11v-6.48h-8.06V637h18.51v12.78H1127v6.48h11.1v2Zm19.1-19.28H1119v8.86h13.8Z" transform="translate(-90.5 -118)"/><path d="M982.31,710.51v-8.93h-11v-2h24.47v2h-11.1v8.93Zm-8.06-14.14V684.44h2.39v4h13.79v-4h2.36v11.93Zm16.18-6H976.64v4.06h13.79Z" transform="translate(-90.5 -118)"/><path d="M995.64,707v-2h11v-6.48h-8.07V685.8h18.51v12.78H1009v6.48h11.1v2Zm19.1-19.29h-13.8v8.87h13.8Z" transform="translate(-90.5 -118)"/><path d="M1035.45,691.66c0,3.57-2.61,6-6.18,6.42v4.4c3-.18,5.8-.37,7.54-.62l.19,1.89c-2.14.31-5.87.59-9.15.81-3,.15-5.64.25-7.91.25l-.43-2.08c2,0,4.65,0,7.41-.12v-4.53c-3.6-.4-6.2-2.79-6.2-6.39,0-3.94,3.16-6.54,7.35-6.54S1035.45,687.72,1035.45,691.66Zm-12.44,0c0,2.73,2.14,4.47,5.06,4.47s5-1.74,5-4.44-2-4.55-5-4.55S1023,688.93,1023,691.69Zm17.86,5v13.76h-2.39v-27.1h2.39v11.35h4.34v2Z" transform="translate(-90.5 -118)"/><path d="M1049.86,689.83v-2h15.53v2Zm7.72,10.26c-3.54,0-6.17-1.76-6.17-4.49s2.6-4.5,6.17-4.5,6.17,1.74,6.17,4.5S1061.11,700.09,1057.58,700.09Zm13.24,1.59v8.8h-2.36v-6.85h-15.19v-2ZM1053.73,686v-2h7.81v2Zm3.85,7c-2,0-3.85,1-3.85,2.6s1.83,2.6,3.85,2.6,3.81-1,3.81-2.6S1059.65,693,1057.58,693Zm13.24.3v6.89h-2.36V683.38h2.36v7.94h4.12v2Z" transform="translate(-90.5 -118)"/><path d="M1086.75,698.11a12.65,12.65,0,0,1-5.68-5.64,13.41,13.41,0,0,1-5.55,6.57l-1.45-1.8c2.88-1.55,5.79-4.83,5.79-8.9V685h2.3v3.32c0,4.16,3.29,6.92,5.86,8Zm1.42,12.31c-5.79,0-9.21-1.92-9.21-5s3.42-5,9.21-5,9.24,1.92,9.24,5S1094,710.42,1088.17,710.42Zm-6.72-5c0,1.86,2.6,3,6.72,3s6.73-1.18,6.73-3-2.57-3-6.73-3S1081.45,703.6,1081.45,705.43Zm13.36-4.93v-8h-3.38v6.64h-2.3V683.88h2.3v6.66h3.38v-7.16h2.36V700.5Z" transform="translate(-90.5 -118)"/><path d="M1098.65,696.9V695h24.46v1.89Zm2.88,13.12V703.6h16.06v-2.51H1101.5v-1.86H1120v6.1h-16.06v2.83h16.9V710Zm.09-17.27v-8.16H1120v1.92h-16v4.35h16.34v1.89Z" transform="translate(-90.5 -118)"/><path d="M1141.93,685.77c-.31,7.38-5.34,12.56-12.25,14.76l-1.21-2c5.83-1.48,10.2-5.79,10.88-10.79h-9.76v-2Zm-9.49,24v-8.37h2.35v6.42h15.54v1.95Zm17-15.94v9.8h-2.36V683.38h2.36v8.5h4.13v2Z" transform="translate(-90.5 -118)"/><path d="M1161.67,704.28c-3.19.16-6.17.25-8.21.28l-.44-2.08c2.33,0,5.52,0,8.81-.21,3.78-.13,7.28-.35,9.27-.59l.21,1.92C1169,703.88,1165.11,704.13,1161.67,704.28Zm-.09-6c-4,0-7.07-2.66-7.07-6.29,0-3.81,3.13-6.45,7.07-6.45s7,2.48,7,6.45S1165.49,698.23,1161.58,698.23Zm0-10.72a4.57,4.57,0,0,0-4.78,4.43,4.78,4.78,0,0,0,9.52,0A4.41,4.41,0,0,0,1161.58,687.51Zm13.67-4.13v27.1h-2.35v-27.1Z" transform="translate(-90.5 -118)"/><path d="M927.39,751.93V747c-2.57.1-5.27.19-7.53.19l-.37-2c2.79,0,6.11,0,9-.09s6-.4,8.59-.68l.19,1.83c-1.71.25-4.72.43-7.57.62v5.08Zm1-8.49c-4.19,0-7.26-1.83-7.26-5s3.07-5,7.26-5,7.19,2,7.19,5S932.57,743.44,928.39,743.44Zm-5.15,15.19v-7.84h2.36v5.86h17v2Zm5.15-23.22c-2.92,0-4.9,1.21-4.9,3.07s2,3,4.9,3,4.86-1.21,4.86-3S931.3,735.41,928.39,735.41ZM939.7,753v-2.95H934v-1.86h5.7v-16h2.36V753Z" transform="translate(-90.5 -118)"/><path d="M953.59,745.05v1.33c2.85-.15,5.8-.37,7.41-.62l.22,1.74c-2,.22-5.46.59-8.68.74-3,.19-6.58.31-8.5.31l-.37-1.95c2,0,4.8,0,7.56-.09v-1.46c-3-.19-5.11-1.27-5.11-3.35,0-2.39,2.69-3.47,6.17-3.47s6.26,1.08,6.26,3.44C958.55,743.72,956.44,744.8,953.59,745.05Zm-9.18-7.66v-1.83h15.85v1.83Zm3,21.8v-5.64h15.19v-2H947.36v-1.76H965v5.39H949.81v2.17H966v1.8ZM952.29,740c-2.24,0-4,.55-4,1.67s1.8,1.67,4,1.67,4-.58,4-1.67S954.49,740,952.29,740Zm-3.69-5.77v-1.92h7.47v1.92Zm16.43,8v6.17h-2.39V732.18H965v8.06h4.09v2Z" transform="translate(-90.5 -118)"/><path d="M968.34,739.22v-2h15.88v2Zm7.94,10.95c-3.6,0-6.36-1.9-6.36-4.75s2.73-4.74,6.36-4.74,6.39,1.83,6.39,4.74S979.94,750.17,976.28,750.17Zm0-7.63c-2.17,0-4.12,1.08-4.12,2.88s2,2.85,4.12,2.85,4.16-1.08,4.16-2.85S978.48,742.54,976.28,742.54Zm-4.06-7.32v-2.08H980v2.08Zm.09,23.19v-6.94h2.36v5h15.69v2Zm17-15.07v8.84H987v-20h2.35v9.18h4.13v2Z" transform="translate(-90.5 -118)"/><path d="M1007.16,753.08c-3.2.16-6.17.25-8.22.28l-.44-2.08c2.33,0,5.52,0,8.81-.21,3.78-.13,7.29-.35,9.27-.59l.22,1.92C1014.47,752.68,1010.6,752.93,1007.16,753.08Zm-.1-6.05c-4,0-7.07-2.66-7.07-6.29,0-3.81,3.13-6.45,7.07-6.45s7,2.48,7,6.45S1011,747,1007.06,747Zm0-10.72a4.57,4.57,0,0,0-4.77,4.43,4.78,4.78,0,0,0,9.52,0C1011.81,738,1009.7,736.31,1007.06,736.31Zm13.68-4.13v27.1h-2.36v-27.1Z" transform="translate(-90.5 -118)"/><path d="M1037.23,752.68c-2.79-1.93-5.83-5.15-6.92-8.44a17.72,17.72,0,0,1-6.79,9.06l-1.52-1.83c3.94-2.42,7.13-7.29,7.13-12.09v-4.81h2.42v4.74c0,4.93,3.41,9.37,7.16,11.57Zm6.41-7.57v14.17h-2.35v-27.1h2.35v11H1048v2Z" transform="translate(-90.5 -118)"/><path d="M1047.14,755.84v-2h11v-7h2.36v7h11.1v2Zm22.2-8.37c-4.74-1.33-8.83-4.71-10-7.75-1,3.1-5.21,6.45-9.95,7.75l-1.25-1.89c4.75-.9,10-4.78,10-9.43V734.2h2.45v1.95c0,4.65,5.58,8.56,10.05,9.43Z" transform="translate(-90.5 -118)"/><path d="M1084.87,744v2.57h11.07v1.95h-24.46V746.6h11V744h-8.1V733.3h18.45v1.89h-16.09v2.51h15.63v1.8h-15.63v2.67h16.28V744Zm-1.18,15.31c-6.17,0-9.45-1.7-9.45-4.55s3.28-4.59,9.45-4.59,9.52,1.61,9.52,4.59S1089.89,759.34,1083.69,759.34Zm-7.07-4.55c0,1.67,2.7,2.63,7.07,2.63s7.14-1,7.14-2.63-2.73-2.7-7.14-2.7S1076.62,753.11,1076.62,754.79Z" transform="translate(-90.5 -118)"/><path d="M1095.81,745.89v-2h24.47v2Zm2.85,13.14v-6.45h16.19V750.2H1098.6v-1.89h18.61v6.07H1101v2.73h17.09V759Zm9.4-17.08c-5.83,0-9.43-1.71-9.43-4.68s3.6-4.72,9.43-4.72,9.49,1.74,9.49,4.72S1114,742,1108.06,742Zm-7-4.68c0,1.67,2.76,2.73,7,2.73s7.1-1.06,7.1-2.73-2.79-2.79-7.1-2.79S1101.05,735.56,1101.05,737.27Z" transform="translate(-90.5 -118)"/><path d="M1133.29,758.48v-9.31c-2.54.13-5,.16-7.35.19l-.37-2.11c3.22,0,6.17,0,9.18-.09,3.38-.09,6.82-.31,9.46-.59l.09,1.83c-2,.28-5.55.49-8.65.65v9.43Zm1.3-13.37c-4.21,0-7.13-2.39-7.13-5.77s2.92-5.82,7.13-5.82,7.1,2.38,7.1,5.82S1138.75,745.11,1134.59,745.11Zm0-9.61c-2.72,0-4.86,1.4-4.86,3.84s2.14,3.79,4.86,3.79,4.81-1.37,4.81-3.79S1137.29,735.5,1134.59,735.5Zm11.23,23.78v-27.1h2.39v27.1Z" transform="translate(-90.5 -118)"/><path d="M1150,739.22v-2h15.87v2Zm7.94,10.95c-3.6,0-6.36-1.9-6.36-4.75s2.73-4.74,6.36-4.74,6.38,1.83,6.38,4.74S1161.62,750.17,1158,750.17Zm0-7.63c-2.17,0-4.13,1.08-4.13,2.88s2,2.85,4.13,2.85,4.15-1.08,4.15-2.85S1160.17,742.54,1158,742.54Zm-4.07-7.32v-2.08h7.82v2.08Zm.1,23.19v-6.94h2.35v5H1172v2Zm17-15.07v8.84h-2.36v-20H1171v9.18h4.12v2Z" transform="translate(-90.5 -118)"/><path d="M1194.08,746.57a13.17,13.17,0,0,1-6.36-6.33c-.83,2.89-3.59,5.59-6.75,7.23l-1.31-1.83c3.88-1.83,6.79-5.24,6.79-9.55v-2.6h2.39V736c0,4.31,3.57,7.62,6.64,8.68Zm-1.83,12.68c-5.67,0-9-2-9-5.18s3.38-5.21,9-5.21,9.12,2,9.12,5.21S1198,759.25,1192.25,759.25Zm-6.63-5.18c0,2.08,2.54,3.23,6.63,3.23s6.7-1.15,6.7-3.23-2.57-3.25-6.7-3.25S1185.62,752,1185.62,754.07ZM1201,741.52v7.37h-2.36V732.18H1201v7.35h4.12v2Z" transform="translate(-90.5 -118)"/><path d="M1209.24,743.72a60.4,60.4,0,0,0,10.54-.93l.22,2a76.48,76.48,0,0,1-12.25.93h-2.23V734.14h12.09v2h-9.7v7.6Zm-.93,15.16v-9.83h17v9.83ZM1223,751h-12.3v5.93H1223Zm2.33-10v6.63h-2.36V732.18h2.36V739h4.12v2Z" transform="translate(-90.5 -118)"/><path d="M629.4,678.11V662.72h2.81v5.33h9.51v-5.33h2.85v15.39Zm12.32-7.73h-9.51v5.4h9.51Zm1.19,22.87c-6.81,0-10.51-2.41-10.51-6.15s3.7-6.14,10.51-6.14,10.62,2.44,10.62,6.14S649.72,693.25,642.91,693.25Zm-7.59-6.15c0,2.37,2.85,3.85,7.59,3.85,5,0,7.73-1.48,7.73-3.85s-2.77-3.85-7.73-3.85C638.1,683.25,635.32,684.77,635.32,687.1Zm17.88-15.28v8.47h-2.82V661h2.82v8.51h4.92v2.33Z" transform="translate(-90.5 -118)"/><path d="M658.71,668.68v-2.34h18.53v2.34Zm9.21,12.24c-4.22,0-7.36-2.11-7.36-5.36s3.1-5.37,7.36-5.37,7.36,2.08,7.36,5.37S672.14,680.92,667.92,680.92Zm15.8,1.89v10.51h-2.81v-8.18H662.78v-2.33Zm-20.39-18.72v-2.41h9.33v2.41Zm4.59,8.36c-2.44,0-4.59,1.18-4.59,3.11s2.18,3.11,4.59,3.11,4.55-1.19,4.55-3.11S670.4,672.45,667.92,672.45Zm15.8.37V681h-2.81V661h2.81v9.47h4.92v2.37Z" transform="translate(-90.5 -118)"/><path d="M712.21,693.21c-7,0-11.32-2-11.32-5.74,0-3.4,3.7-5.4,9.88-5.69v-3.41H697.63V676h29.19v2.33H713.58v3.41c6.25.25,10,2.25,10,5.69C723.61,691.17,719.28,693.21,712.21,693.21ZM724.05,674c-5.4-.88-10.21-3.51-11.84-6.47-1.26,3-6.11,5.66-11.81,6.51l-1.25-2.37c5-.44,10.58-2.85,11.5-6.69H700.37v-2.3h23.68V665H713.87c1,3.84,7,6.25,11.44,6.66Zm-20.28,13.47c0,2.37,3.37,3.45,8.44,3.45s8.51-1.08,8.51-3.45-3.41-3.4-8.51-3.4S703.77,685.18,703.77,687.47Z" transform="translate(-90.5 -118)"/><path d="M574.44,737.14v1.59c3.41-.19,6.92-.45,8.84-.74l.26,2.07c-2.36.26-6.51.7-10.36.89-3.62.22-7.84.37-10.14.37L562.6,739c2.33,0,5.74,0,9-.11v-1.74c-3.55-.23-6.11-1.52-6.11-4,0-2.85,3.22-4.14,7.37-4.14s7.47,1.29,7.47,4.1C580.36,735.54,577.85,736.84,574.44,737.14Zm-11-9.14v-2.19H582.4V728Zm3.62,26v-6.74h18.14v-2.33H567v-2.11h21.09v6.44H569.93v2.59h19.35V754Zm5.78-22.91c-2.67,0-4.74.67-4.74,2s2.15,2,4.74,2,4.81-.7,4.81-2S575.51,731.1,572.89,731.1Zm-4.41-6.88v-2.29h8.92v2.29Zm19.61,9.51v7.36h-2.84V721.78h2.84v9.62H593v2.33Z" transform="translate(-90.5 -118)"/><path d="M609.66,734v4.1h13.21v2.34H593.68v-2.34h13.17V734h-9.62v-10.7h22v2.34H600.08v6h19.28V734Zm-1.4,20.09c-7.07,0-11.07-2.07-11.07-5.66s4-5.63,11.07-5.63,11.14,2,11.14,5.63S615.36,754.12,608.26,754.12Zm-8.18-5.66c0,2.14,3.11,3.33,8.18,3.33s8.25-1.19,8.25-3.33-3.11-3.33-8.25-3.33S600.08,746.39,600.08,748.46Z" transform="translate(-90.5 -118)"/><path d="M633.38,724.63h17.39V727h-7.25c0,1.48,0,2.14,0,2.62.25,4.15,4.25,7.85,8,9.07L649.92,741a16.26,16.26,0,0,1-7.84-7.26c-.89,3-4.63,6.52-8.11,8l-1.63-2.18c4.07-1.59,8.14-5.7,8.29-9.95,0-.45,0-1.15,0-2.59h-7.29Zm4.4,28.42v-10h2.82v7.59h19v2.37Zm18.28-7.59V733.14h-6.44v-2.37h6.44v-9h2.81v23.68Z" transform="translate(-90.5 -118)"/><path d="M682.3,739a112.94,112.94,0,0,1-15.06,1.07h-3.08v-9.59h11.77v-4.36H664.09v-2.33h14.65v9H667v4.92h.41a98.12,98.12,0,0,0,14.65-1Zm5.55,4.4v10.73H685v-8.4H666.72v-2.33Zm4.88-7.29h-4.92v5.62H685V721.78h2.81v5.33h4.92v2.37h-4.92v4.29h4.92Z" transform="translate(-90.5 -118)"/><path d="M703.64,747.68l-1.74-2.22c8.07-3.74,12.69-10.54,13.29-17.83H703v-2.37h15.21C718,735.77,712,743.35,703.64,747.68Zm23-12.43h5.29v2.4h-5.29v16.47h-2.81V721.78h2.81Z" transform="translate(-90.5 -118)"/><path d="M741.68,724.22c5.36,0,8.36,4.59,8.36,11.44s-3,11.43-8.36,11.43-8.33-4.59-8.33-11.47S736.39,724.22,741.68,724.22Zm0,2.44c-3.41,0-5.66,3.67-5.66,9s2.25,9,5.66,9,5.7-3.7,5.7-9S745.12,726.66,741.68,726.66Zm14.39,27.46V721.78h2.81v32.34Z" transform="translate(-90.5 -118)"/><path d="M762.8,749.68v-2.37H792v2.37Zm3.67-9.47V725h21.72v2.33H769.28v10.55h19.2v2.33Z" transform="translate(-90.5 -118)"/></svg>